<?xml version="1.0" encoding="utf-8"?>
<!-- Generator: Adobe Illustrator 26.1.0, SVG Export Plug-In . SVG Version: 6.00 Build 0)  -->
<svg version="1.1" id="Layer_1" xmlns="http://www.w3.org/2000/svg" xmlns:xlink="http://www.w3.org/1999/xlink" x="0px" y="0px"
	 viewBox="0 0 138.2 207.5" style="enable-background:new 0 0 138.2 207.5;" xml:space="preserve">
<style type="text/css">
	.st0{fill:#70CDDD;}
	.st1{opacity:0.89;fill:#4D1F5A;enable-background:new    ;}
</style>
<path class="st0" d="M58.7,45.1l58.4,58.4L58.7,162h13.7l27.5-27.5h8.7l29.6-29.6L109,75.6h-8L70.4,45.1
	C65.9,45.1,63.3,45.1,58.7,45.1L58.7,45.1z"/>
<polygon class="st0" points="108.9,103.5 107.2,101.8 107.2,101.8 0.1,0 0.1,31.5 4.8,31.5 4.8,10.9 9.6,15.6 9.6,191.5 4.8,196.1 
	4.8,175.5 0.1,175.5 0.1,207.1 107.2,105.2 107.2,105.2 "/>
<polygon class="st1" points="102.1,103.5 14.3,186.9 14.3,20.2 "/>
<polygon class="st0" points="14.1,117.2 28.5,103.5 14.1,89.9 "/>
</svg>
