<?xml version="1.0" encoding="utf-8"?>
<!-- Generator: Adobe Illustrator 26.0.3, SVG Export Plug-In . SVG Version: 6.00 Build 0)  -->
<svg version="1.1" id="Layer_1" xmlns="http://www.w3.org/2000/svg" xmlns:xlink="http://www.w3.org/1999/xlink" x="0px" y="0px"
	 viewBox="0 0 719.17 524.65" style="enable-background:new 0 0 719.17 524.65;" xml:space="preserve">
<style type="text/css">
	.st0{opacity:0.3;}
	.st1{fill:#8200FF;}
	.st2{fill:none;stroke:#8200FF;stroke-miterlimit:10;}
</style>
<g id="Screen_2">
	<g class="st0">
		<polygon class="st1" points="15.69,497.56 15.69,430.88 0,415.19 0,171.61 21,150.61 21,26.92 47.91,0 695.73,0 710.32,14.59 
			710.32,126.2 719.17,135.05 719.17,305.82 703.06,321.93 703.06,504.15 682.56,524.65 40.39,524.65 		"/>
	</g>
	<polygon class="st2" points="15.69,497.56 15.69,430.88 0,415.19 0,171.61 21,150.61 21,26.92 47.91,0 695.73,0 710.32,14.59 
		710.32,126.2 719.17,135.05 719.17,305.82 703.06,321.93 703.06,504.15 682.56,524.65 40.39,524.65 	"/>
	<polygon class="st1" points="0,162.37 14.64,147.73 14.64,72.05 0.3,86.39 	"/>
	<polygon class="st1" points="719.17,318.17 709.33,328.02 709.33,411.12 719.07,401.37 	"/>
	<path class="st2" d="M37.26,55.14V37.57C44.78,30.05,49,25.83,56.52,18.31h17.57"/>
	<path class="st2" d="M684.91,470.02v17.57c-7.52,7.52-11.74,11.74-19.26,19.26h-17.57"/>
	<g>
		<line class="st2" x1="689.61" y1="22.48" x2="673.39" y2="38.71"/>
		<line class="st2" x1="689.61" y1="38.71" x2="673.39" y2="22.48"/>
	</g>
</g>
</svg>
