<svg xmlns="http://www.w3.org/2000/svg" width="1042.237" height="262.667" viewBox="0 0 1042.237 262.667">
  <g id="_departments_tooltip" transform="translate(-12.5 0.5)">
    <g id="Group_196" data-name="Group 196" transform="translate(13 0)">
      <g id="Group_195" data-name="Group 195">
        <path id="Path_1298" data-name="Path 1298" d="M1028.936,9.854H980.445L969.864.33H15.108A2.883,2.883,0,0,0,13.67.7L1.163,8.018A1.485,1.485,0,0,0,.34,9.255V240.243a1.345,1.345,0,0,0,.467.979L12.3,251.851a2.678,2.678,0,0,0,1.793.626H60.375a2.677,2.677,0,0,1,1.771.61l9.225,8.3a2.691,2.691,0,0,0,1.771.61h954.474l13.96-8.167V21.542Z" transform="translate(-0.34 -0.33)" fill="#4d1a59" stroke="#03fefe" stroke-width="1" fill-rule="evenodd" opacity="0.72"/>
        <path id="Path_1300" data-name="Path 1300" d="M1317.75,11.74h54.568l10.427,9.951v5.257L1370.119,15.26H1321.66Z" transform="translate(-341.508 -5.736)" fill="aqua" stroke="#03fefe" stroke-width="1" fill-rule="evenodd"/>
        <path id="Path_1301" data-name="Path 1301" d="M1308.75.33h58.03l2.731,3.852h-57.057Z" transform="translate(-339.203 -0.33)" fill="aqua" stroke="#03fefe" stroke-width="1" fill-rule="evenodd"/>
        <path id="Path_1302" data-name="Path 1302" d="M61.55,103.484H12.067a2.743,2.743,0,0,1-1.84-.647L.791,93.96A1.322,1.322,0,0,1,.34,93h0c0-1.531,2.772-2.194,4.109-.979l8.016,7.314a2.738,2.738,0,0,0,1.818.626H61.2a2.737,2.737,0,0,1,1.8.61l.353.31C64.532,101.942,63.465,103.484,61.55,103.484Z" transform="translate(-0.34 152.178)" fill="aqua" stroke="#03fefe" stroke-width="1" fill-rule="evenodd"/>
        <path id="Path_1303" data-name="Path 1303" d="M56.823,122.317H20.351a1.6,1.6,0,0,1-1.437-.895l-.316-.637a1.6,1.6,0,0,1,1.437-2.315H56.4a1.6,1.6,0,0,1,1.331.71l.431.637A1.608,1.608,0,0,1,56.823,122.317Z" transform="translate(10.111 139.35)" fill="aqua" stroke="#03fefe" stroke-width="1" fill-rule="evenodd"/>
      </g>
    </g>
  </g>
</svg>
