<svg xmlns="http://www.w3.org/2000/svg" xmlns:xlink="http://www.w3.org/1999/xlink" width="1041.416" height="66.36" viewBox="0 0 1041.416 66.36">
  <defs>
    <linearGradient id="linear-gradient" x1="-16.77" y1="-0.393" x2="-15.965" y2="-0.393" gradientUnits="objectBoundingBox">
      <stop offset="0" stop-color="#0071bc"/>
      <stop offset="1" stop-color="aqua"/>
    </linearGradient>
    <linearGradient id="linear-gradient-2" x1="-51.49" y1="-3.569" x2="-50.8" y2="-3.569" xlink:href="#linear-gradient"/>
    <linearGradient id="linear-gradient-3" x1="-18.834" y1="-0.439" x2="-18.165" y2="-0.439" xlink:href="#linear-gradient"/>
    <linearGradient id="linear-gradient-4" x1="-54.367" y1="-4.014" x2="-53.688" y2="-4.014" xlink:href="#linear-gradient"/>
  </defs>
  <g id="_departments_tooltip" opacity="0.5">
    <g id="Group_196" data-name="Group 196" transform="translate(0)">
      <g id="Group_195" data-name="Group 195">
        <path id="Path_1298" data-name="Path 1298" d="M1028.936,9.854H980.445L969.864.33H15.108A2.883,2.883,0,0,0,13.67.7L1.163,8.018A1.485,1.485,0,0,0,.34,9.255v35.33a1.345,1.345,0,0,0,.467.979L12.3,56.193a2.678,2.678,0,0,0,1.793.626H60.375a2.677,2.677,0,0,1,1.771.61l9.225,8.3a2.691,2.691,0,0,0,1.771.61h954.474l13.96-8.167V21.542Z" transform="translate(-0.161 -0.156)" fill="#4d1a59" fill-rule="evenodd" opacity="0.72"/>
        <g id="Group_194" data-name="Group 194">
          <path id="Path_1299" data-name="Path 1299" d="M1027.3,66.361H71.811l-.074-.068-9.823-8.846a2.69,2.69,0,0,0-1.77-.61H13.875a2.677,2.677,0,0,1-1.793-.626L.467,45.47A1.336,1.336,0,0,1,0,44.491V8.262l.089-.053L13.489.368A2.881,2.881,0,0,1,14.927,0H969.605l.074.068,10.5,9.456h48.476l12.756,11.8V58.1l-.089.053ZM73.151,66.008h953.975l13.793-8.072V21.443l-12.5-11.571H979.939l-.074-.068L969.361.347H15.1a2.881,2.881,0,0,0-1.437.368L1.319,7.941A1.485,1.485,0,0,0,.5,9.177V44.37a1.345,1.345,0,0,0,.467.979L12.326,55.857a2.677,2.677,0,0,0,1.793.626H61.477l.074.068L71.373,65.4A2.668,2.668,0,0,0,73.151,66.008Z" transform="translate(0)" fill="aqua"/>
        </g>
        <path id="Path_1300" data-name="Path 1300" d="M1317.75,11.74h54.568l10.427,9.951v5.257L1370.119,15.26H1321.66Z" transform="translate(-341.329 -5.562)" fill="aqua" fill-rule="evenodd"/>
        <path id="Path_1301" data-name="Path 1301" d="M1308.75.33h58.03l2.731,3.852h-57.057Z" transform="translate(-339.024 -0.156)" fill="aqua" fill-rule="evenodd"/>
        <path id="Path_1302" data-name="Path 1302" d="M61.55,103.484H12.067a2.743,2.743,0,0,1-1.84-.647L.791,93.96A1.322,1.322,0,0,1,.34,93h0c0-1.531,2.772-2.194,4.109-.979l8.016,7.314a2.738,2.738,0,0,0,1.818.626H61.2a2.737,2.737,0,0,1,1.8.61l.353.31C64.532,101.942,63.465,103.484,61.55,103.484Z" transform="translate(-0.161 -43.301)" fill="aqua" fill-rule="evenodd"/>
        <path id="Path_1303" data-name="Path 1303" d="M56.823,122.317H20.351a1.6,1.6,0,0,1-1.437-.895l-.316-.637a1.6,1.6,0,0,1,1.437-2.315H56.4a1.6,1.6,0,0,1,1.331.71l.431.637A1.608,1.608,0,0,1,56.823,122.317Z" transform="translate(10.29 -56.13)" fill="aqua" fill-rule="evenodd"/>
      </g>
    </g>
    <g id="Group_200" data-name="Group 200" transform="translate(986.415 24.972)">
      <g id="Group_198" data-name="Group 198" transform="translate(0.006)">
        <g id="Group_197" data-name="Group 197">
          <path id="Path_1304" data-name="Path 1304" d="M1333.523,73.487a3.215,3.215,0,0,0,.321-.246l6.12-5.443,3.678-3.272,1.421-1.261,1.175-1.043.143-.126a1.592,1.592,0,0,0,.453-1.175V51.863a1.4,1.4,0,0,0-.682-1.324.744.744,0,0,0-.831.149l-7.111,6.331-1.175,1.043-1.415,1.261-2.074,1.845a1.753,1.753,0,0,1-2.492,0l-11.78-10.48a.754.754,0,0,0-.831-.149,1.4,1.4,0,0,0-.682,1.324v9.053a1.592,1.592,0,0,0,.453,1.175l6.056,5.386,4.687,4.166,1.793,1.593a2.3,2.3,0,0,0,1.65.636A2.117,2.117,0,0,0,1333.523,73.487Zm-2.481-.59-4.217-3.753-8.314-7.4a1.142,1.142,0,0,1-.3-.831V51.863a.985.985,0,0,1,.407-.905.292.292,0,0,1,.338.074l11.78,10.48a2.21,2.21,0,0,0,3.111,0l2.166-1.931,1.421-1.261,1.175-1.043,7.019-6.245a.3.3,0,0,1,.338-.074.971.971,0,0,1,.407.905v9.053a1.167,1.167,0,0,1-.3.831l-.241.212L1344.661,63l-1.421,1.261-3.679,3.272-6.022,5.357a2.02,2.02,0,0,1-.447.309A1.715,1.715,0,0,1,1331.042,72.9Z" transform="translate(-1317.76 -50.472)" fill="url(#linear-gradient)"/>
        </g>
        <path id="Path_1305" data-name="Path 1305" d="M1331.049,73.241l-12.531-11.15a1.357,1.357,0,0,1-.378-1V52.035c0-.894.625-1.45,1.129-1l11.78,10.48a1.981,1.981,0,0,0,2.8,0l11.78-10.48c.5-.447,1.129.109,1.129,1v9.053a1.356,1.356,0,0,1-.378,1l-12.531,11.15A1.992,1.992,0,0,1,1331.049,73.241Z" transform="translate(-1317.922 -50.644)" fill="aqua" opacity="0.45"/>
      </g>
      <g id="Group_199" data-name="Group 199" opacity="0.2">
        <path id="Path_1306" data-name="Path 1306" d="M1337.235,86.554l-.4-.258-1.759-1.14c-.006,0-1.283-.831-1.283-.831l-4.687-4.166,1.284.837,1.283.831,6.268,4.062.218.143.212.138A2.259,2.259,0,0,1,1337.235,86.554Z" transform="translate(-1322.601 -63.15)" fill="url(#linear-gradient-2)"/>
        <path id="Path_1307" data-name="Path 1307" d="M1339.958,67.8l-.2-.132-.2-.132-21.349-13.849-.229-.149-.229-.149V51.863a1.4,1.4,0,0,1,.682-1.324.744.744,0,0,1,.831.149l11.78,10.48a1.754,1.754,0,0,0,2.493,0l2.074-1.845.2.132.2.132,7.225,4.687.2.132.2.132Z" transform="translate(-1317.75 -50.472)" fill="url(#linear-gradient-3)"/>
        <path id="Path_1308" data-name="Path 1308" d="M1359.417,68.141l-.2-.132-.2-.126L1351.8,63.2l-.206-.132-.2-.132,1.175-1.043.2.132.2.126,7.225,4.687.2.132.2.132Z" transform="translate(-1332.115 -55.348)" fill="url(#linear-gradient-4)"/>
      </g>
    </g>
  </g>
</svg>
