<?xml version="1.0" encoding="utf-8"?>
<!-- Generator: Adobe Illustrator 26.0.3, SVG Export Plug-In . SVG Version: 6.00 Build 0)  -->
<svg version="1.1" id="Layer_1" xmlns="http://www.w3.org/2000/svg" xmlns:xlink="http://www.w3.org/1999/xlink" x="0px" y="0px"
	 viewBox="0 0 1741.89 46.18" style="enable-background:new 0 0 1741.89 46.18;" xml:space="preserve">
<style type="text/css">
	.st0{fill:#8200FF;}
	.st1{fill:#FFFFFF;}
	.st2{opacity:0.2;fill:#AD9300;}
	.st3{opacity:0.75;fill:#D77CBF;}
	.st4{opacity:0.3;fill:#A305D8;}
</style>
<g>
	<g>
		<g>
			<g>
				<path class="st0" d="M1738.26,23.99c0-1,0.81-1.81,1.81-1.81c1,0,1.81,0.81,1.81,1.81c0,1-0.81,1.81-1.81,1.81
					C1739.08,25.8,1738.26,24.99,1738.26,23.99z M1738.74,23.99c0,0.74,0.6,1.34,1.34,1.34c0.74,0,1.34-0.6,1.34-1.34
					s-0.6-1.34-1.34-1.34C1739.34,22.65,1738.74,23.25,1738.74,23.99z"/>
			</g>
			<path class="st1" d="M1739.55,23.99c0,0.29,0.24,0.53,0.53,0.53c0.29,0,0.53-0.24,0.53-0.53c0-0.29-0.24-0.53-0.53-0.53
				C1739.78,23.47,1739.55,23.7,1739.55,23.99z"/>
		</g>
		<polygon class="st2" points="1716.54,13.91 1702.87,0.24 1716.54,0.24 		"/>
		<polygon class="st2" points="73.26,4.68 68.9,0.32 1645.9,0.24 1672.99,0.32 1668.63,4.68 		"/>
		<polygon class="st0" points="25.34,45.88 25.34,31.97 39.05,45.68 69.11,45.68 73.35,41.44 1668.71,41.44 1672.94,45.68 
			1702.84,45.68 1716.54,31.97 1716.54,45.88 		"/>
		<polygon class="st2" points="39.02,0.24 25.34,13.92 25.34,0.24 		"/>
		<polygon class="st0" points="1702.63,45.88 1716.54,31.97 1716.54,31.97 1716.72,31.8 1716.72,45.88 		"/>
		<polygon class="st0" points="1702.63,45.88 1716.54,31.97 1716.54,31.97 1716.72,31.8 1725.57,22.94 1731.57,22.94 1716.72,37.79 
			1716.54,37.97 1709.15,45.36 1705.18,45.68 		"/>
		<polygon class="st0" points="1702.63,0 1716.72,0 1716.72,14.09 1716.54,13.92 1716.54,13.91 1702.87,0.24 		"/>
		<polygon class="st0" points="1702.63,0 1705.59,0.24 1709.15,0.52 1716.54,7.92 1716.72,8.09 1731.57,22.94 1725.57,22.94 
			1716.72,14.09 1716.54,13.91 1702.87,0.24 		"/>
		<polygon class="st3" points="1731.57,22.94 1725.57,22.94 1702.63,0 1708.78,0 		"/>
		<g>
			<rect x="25.17" y="45.68" class="st0" width="1691.55" height="0.41"/>
		</g>
		<polygon class="st0" points="1672.94,45.68 1668.71,41.44 1645.98,41.44 73.35,41.44 69.11,45.68 68.99,45.81 1645.98,45.88 
			1673.07,45.81 		"/>
		<polygon class="st0" points="1645.9,0.24 68.9,0.32 73.26,4.68 1645.9,4.68 1668.63,4.68 1672.99,0.32 		"/>
		<g>
			
				<rect x="1727.65" y="-4.5" transform="matrix(0.7071 -0.7071 0.7071 0.7071 497.9493 1225.1422)" class="st0" width="0.41" height="31.98"/>
		</g>
		<g>
			<g>
				<path class="st0" d="M1.81,25.8c-1,0-1.81-0.81-1.81-1.81c0-1,0.81-1.81,1.81-1.81c1,0,1.81,0.81,1.81,1.81
					C3.62,24.99,2.81,25.8,1.81,25.8z M1.81,22.65c-0.74,0-1.34,0.6-1.34,1.34s0.6,1.34,1.34,1.34s1.34-0.6,1.34-1.34
					S2.55,22.65,1.81,22.65z"/>
			</g>
			<path class="st0" d="M2.34,23.99c0,0.29-0.24,0.53-0.53,0.53c-0.29,0-0.53-0.24-0.53-0.53c0-0.29,0.24-0.53,0.53-0.53
				C2.1,23.47,2.34,23.7,2.34,23.99z"/>
		</g>
		<polygon class="st0" points="25.17,45.88 25.17,31.8 25.34,31.96 25.34,31.97 39.05,45.68 39.25,45.88 		"/>
		<polygon class="st0" points="10.32,22.94 16.31,22.94 25.17,31.8 25.34,31.96 25.34,31.97 39.05,45.68 39.25,45.88 36.71,45.68 
			32.73,45.36 25.34,37.96 25.17,37.79 		"/>
		<polygon class="st0" points="25.17,14.09 25.17,0 39.25,0 39.02,0.24 25.34,13.92 25.34,13.92 		"/>
		<polygon class="st4" points="67.8,2.69 72.24,7.13 1669.64,7.13 1674.08,2.69 1701.85,2.69 1714.09,14.93 1714.09,14.94 
			1715.01,15.84 1722.11,22.94 1714.99,30.06 1714.09,30.94 1714.09,30.96 1701.82,43.23 1673.96,43.23 1669.73,38.99 72.33,38.99 
			68.1,43.23 40.06,43.23 27.79,30.95 27.79,30.93 26.88,30.04 19.78,22.94 26.9,15.82 27.79,14.95 27.79,14.93 40.03,2.69 		"/>
		<polygon class="st0" points="10.32,22.94 32.73,0.52 36.3,0.24 39.25,0 39.02,0.24 25.34,13.92 25.17,14.09 16.31,22.94 		"/>
		<polygon class="st3" points="10.28,22.94 16.27,22.94 39.22,0 33.07,0 		"/>
		<g>
			
				<rect x="-1.96" y="11.29" transform="matrix(0.7071 -0.7071 0.7071 0.7071 -4.0164 13.2898)" class="st0" width="31.98" height="0.41"/>
		</g>
	</g>
</g>
</svg>
