<?xml version="1.0" encoding="UTF-8"?>
<svg id="Layer_1" data-name="Layer 1" xmlns="http://www.w3.org/2000/svg" viewBox="0 0 994.71689 806.06591">
  <path d="M938.11943,87.92488l-57.39686-53.95295-89.68848,7.91297-26.27172-25.31206-270.85932,25.81147-15.13344,18.65683L103.29954,95.03787l-11.02457-13.05155-66.76397,6.33484-15.53529,21.1976v92.21685l16.71963,20.9417v351.82343l-13.03815,16.25244v77.13834l23.3446,32.65218,304.91206,29.83218,24.48418-26.66848,293.20109,26.25982,30.23738,35.6046,236.52881,23.21267,51.55699-47.35625V193.58112l-39.80286-38.07197V87.92488Zm37.40045,106.76867V740.22455l-50.12467,46.08214-234.69725-22.89576-30.25077-35.59518-294.77079-26.22808-24.47428,26.67791-303.60718-29.52667-22.52578-31.48867v-75.64105l13.04956-16.25641V221.83368l-16.73451-20.94665V110.1754l14.70407-20.05294,65.57317-6.18357,11.02063,13.05601L479.53872,63.09292l15.13952-18.65187,269.18895-25.49457,26.25982,25.32197,89.64731-7.85692,55.98884,52.67636v67.54508l39.75673,38.06057Z" style="fill: #00f2eb; stroke: #fff; stroke-miterlimit: 10;"/>
  <polygon points="984.54329 190.31303 984.54329 744.56143 929.04446 795.41168 687.47774 771.31522 657.27905 735.68731 368.38334 709.34814 343.88674 736.00025 35.37704 705.3185 9.78775 669.46989 9.78775 588.21315 22.78426 571.95822 22.78426 224.80321 6.11173 203.88285 6.11173 107.52329 23.92496 83.1729 93.96022 76.41451 105.0106 89.44573 476.66268 55.19509 491.77195 36.53478 767.22679 9.8415 793.54513 35.13669 883.34172 27.06949 944.61099 84.5204 944.61099 152.20783 984.54329 190.31303" style="fill: #4d1a59; opacity: .78; stroke: #180a1e; stroke-miterlimit: 10;"/>
  <path d="M954.10267,147.88483V80.03424l-66.96194-62.56519-89.96968,8.29336L770.81551,.52028,488.67322,28.5219l-15.08992,18.68659L107.47944,81.80381l-11.05384-13.02228-74.80734,7.39369L.5,105.10923v102.33978l16.61896,20.90896v340.40655l-12.95981,16.22863v87.21614l28.84326,40.50315,313.72716,31.93503,24.55213-26.60798,282.60105,26.42745,30.14612,35.66759,248.90338,25.41124,61.28465-55.94916V186.0307l-40.11422-38.14587Zm30.44558,596.86679l-55.50727,50.85819-241.57515-24.09745-30.19968-35.63138-288.87984-26.33818-24.51197,26.64517-308.50325-30.68076-25.59178-35.85158v-81.25427l13.00592-16.24401V224.99688l-16.67845-20.9283V107.71894l17.81618-24.35188,70.04172-6.75887,11.03698,13.03965L476.65276,55.39818l15.11522-18.66873L767.22728,10.03616l26.30693,25.28279,89.80205-8.06769,61.28415,57.46479v67.69387l39.92784,38.10074V744.75163Z" style="fill: #00f2eb; stroke: #120914; stroke-miterlimit: 10;"/>
</svg>