<?xml version="1.0" encoding="UTF-8"?>
<svg id="Layer_1" data-name="Layer 1" xmlns="http://www.w3.org/2000/svg" viewBox="0 0 7391.25 4978.92">
  <defs>
    <style>
      .cls-1 {
        fill: #691572;
        opacity: .56;
      }

      .cls-1, .cls-2 {
        stroke: #020221;
      }

      .cls-1, .cls-2, .cls-3 {
        stroke-miterlimit: 10;
      }

      .cls-2, .cls-3 {
        fill: #24d6ff;
      }

      .cls-3 {
        stroke: #00000a;
      }
    </style>
  </defs>
  <g>
    <circle class="cls-2" cx="2993.1" cy="4727.38" r="150.94"/>
    <path class="cls-2" d="M2993.08,4890.71c-90.02,0-163.32-73.29-163.32-163.36s73.3-163.32,163.32-163.32,163.36,73.3,163.36,163.32-73.29,163.36-163.36,163.36Zm0-301.85c-76.35,0-138.49,62.14-138.49,138.49s62.14,138.54,138.49,138.54,138.54-62.14,138.54-138.54-62.14-138.49-138.54-138.49Z"/>
  </g>
  <path class="cls-2" d="M2993.08,4978.42c-138.42,0-251.02-112.64-251.02-251.06s112.6-251.02,251.02-251.02c6.84,0,12.42,5.58,12.42,12.41s-5.58,12.42-12.42,12.42c-124.71,0-226.19,101.48-226.19,226.19s101.48,226.24,226.19,226.24,226.24-101.48,226.24-226.24c0-6.83,5.58-12.41,12.41-12.41s12.42,5.58,12.42,12.41c0,138.42-112.64,251.06-251.06,251.06Z"/>
  <path class="cls-2" d="M7170.06,572.92v1666.67l-572.46,572.39H881.25l-572.42-572.39V572.92L881.25,.5h478.55c17.38,0,31.98,11.88,36.13,27.96,.77,2.99,1.18,6.12,1.18,9.35s-.41,6.36-1.17,9.34c-4.15,16.08-18.75,27.95-36.14,27.95h-447.66L383.46,603.84v1604.81l377.35,377.37,151.33,151.34H6566.72l528.71-528.71V603.84l-404.28-404.29-124.43-124.43H3211.26c-17.39,0-31.99-11.88-36.14-27.95-.76-2.99-1.17-6.12-1.17-9.34s.41-6.37,1.18-9.35c4.15-16.09,18.75-27.96,36.13-27.96h3386.34l572.46,572.42Z"/>
  <path class="cls-2" d="M3187.09,37.82c0,5.17-5.08,9.34-11.27,9.34H1391.41c-6.18,0-11.25-4.18-11.25-9.34s5.08-9.35,11.25-9.35h1784.41c6.19,0,11.27,4.18,11.27,9.35Z"/>
  <polygon class="cls-2" points="3693.21 2923.4 6790.63 2923.4 6688.92 3025.11 3776.43 3025.11 3693.21 2923.4"/>
  <polygon class="cls-2" points="6688.92 3025.11 7269.11 2444.93 7269.11 2319.52 6565.67 3025.11 6688.92 3025.11"/>
  <polygon class="cls-2" points="7269.11 2591.7 7269.11 3025.11 6848.4 3025.11 7269.11 2591.7"/>
  <polygon class="cls-2" points="4508.01 3025.11 4662.3 3179.4 7058.76 3179.4 7134.31 3103.84 6317.92 3103.84 6231.74 3017.67 4508.01 3025.11"/>
  <polygon class="cls-2" points="3300.43 2747.75 903.98 2747.75 749.68 2586.02 2473.42 2586.02 2559.6 2672.19 3238.41 2672.19 3291.89 2737.35 3300.43 2747.75"/>
  <path class="cls-1" d="M7095.43,603.84v1604.81l-528.71,528.71H3291.89l-53.48-65.17h-678.81l-86.18-86.17H760.81l-377.35-377.37V603.84L912.14,75.12h447.66c17.39,0,31.99-11.88,36.14-27.95h1779.19c4.15,16.08,18.75,27.95,36.14,27.95h1023.64l31.4,38.26h678.82l86.18,86.17h1659.86l404.28,404.29Z"/>
  <polygon class="cls-2" points="6755.03 199.55 5031.3 199.55 4945.12 113.38 4266.3 113.38 4234.9 75.12 4204.28 37.82 6600.73 37.82 6755.03 199.55"/>
  <path class="cls-2" d="M2993.08,4764.67c-9.56,0-19.1-3.62-26.37-10.93-14.59-14.56-14.59-38.2,0-52.76l537.69-537.65h2178l353.17-353.21v-312.97l-371.6-371.64c-14.59-14.56-14.59-38.2,0-52.76,14.56-14.62,38.2-14.62,52.76,0l393.46,393.43v374.89l-396.91,396.87H3535.28l-515.82,515.79c-7.28,7.32-16.81,10.93-26.38,10.93Z"/>
  <path class="cls-3" d="M7269.14,2144.69c-5.17,0-9.31-4.18-9.31-9.34V617.47c0-5.17,4.14-9.35,9.31-9.35s9.31,4.18,9.31,9.35v1517.88c0,5.17-4.13,9.34-9.31,9.34Z"/>
  <path class="cls-2" d="M7188.01,3244.2h-1223.3c-5.17,0-9.31-4.18-9.31-9.34s4.14-9.34,9.31-9.34h1215.17l192.25-204.11V617.47c0-5.17,4.14-9.35,9.31-9.35s9.31,4.18,9.31,9.35V3028.8c-2.51,2.69-202.74,215.4-202.74,215.4Z"/>
  <path class="cls-2" d="M5669.17,3244.2h-1076.93l-142.82-142.82h-1211c-5.14,0-9.34-4.17-9.34-9.34s4.21-9.34,9.34-9.34h1218.76l142.82,142.82h1069.18c5.17,0,9.35,4.17,9.35,9.34s-4.18,9.34-9.35,9.34Z"/>
  <polygon class="cls-2" points="3609.23 2923.4 3693.21 3025.11 3553.23 3025.11 3462.53 2923.4 3609.23 2923.4"/>
  <polygon class="cls-2" points="3318.79 2923.4 3402.78 3025.11 3262.81 3025.11 3172.1 2923.4 3318.79 2923.4"/>
  <polygon class="cls-2" points="201.12 609.69 201.12 2207.65 103.14 2207.65 103.14 1477.49 .5 1374.84 .5 777.65 201.12 609.69"/>
  <path class="cls-2" d="M5599.72,4094.8h-1365.72c-5.17,0-9.34-4.18-9.34-9.34s4.17-9.35,9.34-9.35h1357.95l373.56-373.56h107.36c5.17,0,9.31,4.18,9.31,9.35s-4.14,9.34-9.31,9.34h-99.67l-373.48,373.56Z"/>
  <path class="cls-2" d="M3335.57,4548.74c-2.4,0-4.77-.92-6.61-2.73-3.62-3.66-3.62-9.57,0-13.22l240.53-240.53h1313.18l99.75-99.75c3.69-3.62,9.53-3.62,13.23,0,3.62,3.65,3.62,9.57,0,13.22l-105.21,105.21h-1313.19l-235.06,235.07c-1.85,1.81-4.21,2.73-6.61,2.73Z"/>
</svg>