<?xml version="1.0" encoding="UTF-8"?>
<svg id="Layer_1" data-name="Layer 1" xmlns="http://www.w3.org/2000/svg" viewBox="0 0 994.71689 806.06591">
  <path d="M56.59745,155.50915l-39.80286,38.07197V741.42823l51.55699,47.35625,236.52881-23.21267,30.23738-35.6046,293.20109-26.25982,24.48418,26.66848,304.91206-29.83218,23.3446-32.65218v-77.13834l-13.03815-16.25244V222.67731l16.71963-20.9417V109.51876l-15.53529-21.1976-66.76397-6.33484-11.02457,13.05155-375.47008-33.99671-15.13344-18.65683L229.95451,16.57285l-26.27172,25.31206-89.68848-7.91297-57.39686,53.95295v67.58427Zm2.35628,1.12383V89.0879l55.98884-52.67636,89.64731,7.85692,26.25982-25.32197,269.18895,25.49457,15.13952,18.65187,376.85663,33.90198,11.02063-13.05601,65.57317,6.18357,14.70407,20.05294v90.71163l-16.73451,20.94665v353.5191l13.04956,16.25641v75.64105l-22.52578,31.48867-303.60718,29.52667-24.47428-26.67791-294.77079,26.22808-30.25077,35.59518-234.69725,22.89576-50.12467-46.08214V194.69355l39.75673-38.06057Z" style="fill: #00f2eb; stroke: #fff; stroke-miterlimit: 10;"/>
  <polygon points="10.17359 190.31303 10.17359 744.56143 65.67243 795.41168 307.23915 771.31522 337.43784 735.68731 626.33355 709.34814 650.83015 736.00025 959.33985 705.3185 984.92914 669.46989 984.92914 588.21315 971.93263 571.95822 971.93263 224.80321 988.60515 203.88285 988.60515 107.52329 970.79193 83.1729 900.75667 76.41451 889.70629 89.44573 518.05421 55.19509 502.94494 36.53478 227.4901 9.8415 201.17176 35.13669 111.37517 27.06949 50.1059 84.5204 50.1059 152.20783 10.17359 190.31303" style="fill: #4d1a59; opacity: .78; stroke: #180a1e; stroke-miterlimit: 10;"/>
  <path d="M.5,186.0307V749.59661l61.28465,55.94916,248.90338-25.41124,30.14612-35.66759,282.60105-26.42745,24.55213,26.60798,313.72716-31.93503,28.84326-40.50315v-87.21614l-12.95981-16.22863V228.35797l16.61896-20.90896V105.10923l-21.11826-28.93401-74.80734-7.39369-11.05384,13.02228-366.10385-34.59532-15.08992-18.68659L223.90138,.52028l-26.35554,25.24212-89.96968-8.29336L40.61422,80.03424v67.85059L.5,186.0307Zm9.66864,4.47996l39.92784-38.10074V84.71605L111.38063,27.25126l89.80205,8.06769,26.30693-25.28279,275.4593,26.69328,15.11522,18.66873,371.6511,34.24965,11.03698-13.03965,70.04172,6.75887,17.81618,24.35188v96.34964l-16.67845,20.9283v347.16047l13.00592,16.24401v81.25427l-25.59178,35.85158-308.50325,30.68076-24.51197-26.64517-288.87984,26.33818-30.19968,35.63138-241.57515,24.09745-55.50727-50.85819V190.51067Z" style="fill: #00f2eb; stroke: #120914; stroke-miterlimit: 10;"/>
</svg>