<?xml version="1.0" encoding="utf-8"?>
<!-- Generator: Adobe Illustrator 26.0.3, SVG Export Plug-In . SVG Version: 6.00 Build 0)  -->
<svg version="1.1" id="Layer_1" xmlns="http://www.w3.org/2000/svg" xmlns:xlink="http://www.w3.org/1999/xlink" x="0px" y="0px"
	 viewBox="0 0 590.06 590.08" style="enable-background:new 0 0 590.06 590.08;" xml:space="preserve">
<style type="text/css">
	.st0{fill:#8200FF;}
	.st1{fill:#FFFFFF;}
	.st2{opacity:0.5;fill:#26FDFF;}
	
		.st3{fill:none;stroke:#8200FF;stroke-width:0.5;stroke-miterlimit:10;stroke-dasharray:1.0033,1.0033,1.0033,1.0033,1.0033,1.0033;}
</style>
<g id="XMLID_2678_">
	<g id="XMLID_66062_">
		<path id="XMLID_66076_" class="st0" d="M457.31,391.64c-7.29,12.13-15.9,23.38-25.61,33.56l26.44,26.44
			c12.01-12.49,22.62-26.34,31.57-41.3L457.31,391.64z"/>
		<path id="XMLID_66075_" class="st0" d="M484.48,295.99c-0.19,14.19-1.92,28-5.04,41.28l36.14,9.68
			c3.94-16.37,6.11-33.43,6.3-50.96H484.48z"/>
		<path id="XMLID_66074_" class="st0" d="M477.35,345.36c-3.87,13.7-9.22,26.77-15.88,39.03l32.38,18.7
			c8.27-15.07,14.89-31.16,19.62-48.05L477.35,345.36z"/>
		<path id="XMLID_66073_" class="st0" d="M347.13,515.34l-9.68-36.14c-13.56,3.18-27.67,4.91-42.17,5.03v37.39
			C313.12,521.5,330.48,519.33,347.13,515.34z"/>
		<path id="XMLID_66072_" class="st0" d="M237.05,72.25l9.68,36.13c12.92-3.27,26.37-5.21,40.19-5.69V65.27
			C269.75,65.77,253.06,68.17,237.05,72.25z"/>
		<path id="XMLID_66071_" class="st0" d="M403.66,493.42l-18.7-32.39c-12.38,6.76-25.58,12.18-39.43,16.08l9.68,36.12
			C372.25,508.48,388.48,501.79,403.66,493.42z"/>
		<path id="XMLID_66070_" class="st0" d="M425.8,431.11c-10.18,9.77-21.44,18.43-33.59,25.76l18.7,32.39
			c14.98-8.98,28.84-19.64,41.33-31.71L425.8,431.11z"/>
		<path id="XMLID_66069_" class="st0" d="M161.87,155.37c9.82-9.38,20.64-17.71,32.28-24.84l-18.7-32.4
			c-14.47,8.78-27.88,19.12-40.01,30.79L161.87,155.37z"/>
		<path id="XMLID_66068_" class="st0" d="M102.91,287.64c0.42-14.14,2.38-27.88,5.71-41.08l-36.13-9.68
			c-4.15,16.29-6.55,33.28-6.99,50.76H102.91z"/>
		<path id="XMLID_66067_" class="st1" d="M295.28,102.58c102.73,0.85,186.11,82.86,189.14,185.06h37.41
			c-3.05-122.85-103.17-221.6-226.55-222.45V102.58z"/>
		<path id="XMLID_66065_" class="st0" d="M130.98,193.58c7.17-11.66,15.55-22.49,24.98-32.31l-26.44-26.44
			c-11.72,12.13-22.12,25.56-30.94,40.05L130.98,193.58z"/>
		<path id="XMLID_66064_" class="st0" d="M110.85,238.5c3.97-13.23,9.33-25.86,15.92-37.71l-32.39-18.7
			c-8.2,14.66-14.83,30.31-19.67,46.72L110.85,238.5z"/>
		<path id="XMLID_66063_" class="st0" d="M201.37,126.33c11.74-6.5,24.23-11.79,37.31-15.72l-9.68-36.14
			c-16.27,4.8-31.79,11.36-46.33,19.47L201.37,126.33z"/>
		<path id="XMLID_66066_" class="st1" d="M286.92,484.12C185.5,480.6,104.2,397.95,102.85,295.99h-37.4
			c1.36,122.61,99.4,222,221.47,225.55V484.12z"/>
	</g>
	<g id="XMLID_2677_">
		<g id="XMLID_66042_">
			<polygon id="XMLID_66045_" class="st2" points="404.34,377.57 381.05,400.86 383,379.52 			"/>
			<polygon id="XMLID_66044_" class="st2" points="411.19,389.71 393.19,407.72 394.69,391.21 			"/>
			<polygon id="XMLID_66043_" class="st2" points="415.67,400.43 403.9,412.19 404.89,401.41 			"/>
		</g>
		<g id="XMLID_66038_">
			<polygon id="XMLID_66041_" class="st2" points="217.28,400.86 193.99,377.57 215.32,379.52 			"/>
			<polygon id="XMLID_66040_" class="st2" points="205.14,407.72 187.13,389.71 203.63,391.21 			"/>
			<polygon id="XMLID_66039_" class="st2" points="194.42,412.19 182.66,400.43 193.43,401.41 			"/>
		</g>
		<g id="XMLID_66034_">
			<polygon id="XMLID_66037_" class="st2" points="194,213.48 217.29,190.19 215.34,211.53 			"/>
			<polygon id="XMLID_66036_" class="st2" points="187.14,201.35 205.15,183.34 203.64,199.84 			"/>
			<polygon id="XMLID_66035_" class="st2" points="182.67,190.63 194.43,178.86 193.45,189.64 			"/>
		</g>
		<g id="XMLID_66030_">
			<polygon id="XMLID_66033_" class="st2" points="381.66,190.19 404.94,213.48 383.6,211.53 			"/>
			<polygon id="XMLID_66032_" class="st2" points="393.79,183.34 411.8,201.34 395.3,199.84 			"/>
			<polygon id="XMLID_66031_" class="st2" points="404.51,178.86 416.27,190.63 405.49,189.64 			"/>
		</g>
		<g>
			<path class="st3" d="M392.99,295.73c0,51.85-42.04,93.89-93.89,93.89c-124.55-4.95-124.51-182.86,0-187.78
				C350.96,201.84,392.99,243.87,392.99,295.73L392.99,295.73z"/>
		</g>
	</g>
	<g id="XMLID_65840_">
		<path id="XMLID_65854_" class="st0" d="M34.71,434.03l3.62-2.09c-10.52-19.71-18.62-40.36-24.28-61.54l-4.03,1.08
			C15.77,393.01,24,414.01,34.71,434.03z"/>
		<path id="XMLID_65853_" class="st0" d="M576.67,367.82c-5.23,20.33-12.7,40.2-22.39,59.23l3.62,2.09
			c9.88-19.35,17.48-39.56,22.8-60.24L576.67,367.82z"/>
		<path id="XMLID_65852_" class="st0" d="M83.59,494.78c-15.43-16.31-28.61-33.97-39.54-52.59l-3.62,2.09
			c11.11,18.92,24.51,36.88,40.2,53.45L83.59,494.78z"/>
		<path id="XMLID_65851_" class="st0" d="M552.37,439.49l-3.62-2.09c-10.29,18.32-22.72,35.76-37.29,51.96l2.96,2.96
			C529.25,475.86,541.9,458.12,552.37,439.49z"/>
		<path id="XMLID_65850_" class="st0" d="M579.37,356.4l4.04,1.08c4.53-21.03,6.74-42.46,6.64-63.88h-4.18
			C585.98,314.66,583.82,335.72,579.37,356.4z"/>
		<path id="XMLID_65849_" class="st0" d="M4.47,281.86c0.98-21.78,4.41-43.46,10.26-64.62l-4.04-1.08
			c-5.95,21.51-9.42,43.56-10.4,65.7H4.47z"/>
		<path id="XMLID_65848_" class="st0" d="M14.03,204.91l4.04,1.08c6.59-20.56,15.53-40.53,26.81-59.5l-3.62-2.09
			C29.8,163.69,20.72,184,14.03,204.91z"/>
		<path id="XMLID_65847_" class="st0" d="M89.2,83.69c-0.93,0.91-1.87,1.8-2.8,2.72c-14.91,14.91-27.88,31.03-38.93,48.03l3.62,2.09
			c10.87-16.69,23.61-32.52,38.26-47.17c0.92-0.92,1.86-1.82,2.8-2.73L89.2,83.69z"/>
		<path id="XMLID_65846_" class="st0" d="M11.25,359c-4.82-21.51-7.19-43.46-7.08-65.4l-4.17,0c-0.11,22.3,2.3,44.62,7.22,66.48
			L11.25,359z"/>
		<path id="XMLID_65845_" class="st0" d="M503.43,497.92c-0.91,0.93-1.81,1.87-2.73,2.79c-112.78,112.78-295.1,113.56-408.87,2.41
			l-2.95,2.96c115.41,112.78,300.38,111.99,414.78-2.42c0.92-0.92,1.82-1.86,2.72-2.79L503.43,497.92z"/>
		<path id="XMLID_65844_" class="st0" d="M100.71,78.61C212.87-22.27,384.57-20.6,494.77,83.6l2.95-2.95
			c-111.83-105.84-286.17-107.51-399.97-5L100.71,78.61z"/>
		<path id="XMLID_65843_" class="st0" d="M576.04,219.82c5.43,20.34,8.61,41.15,9.55,62.05h4.18c-0.95-21.26-4.18-42.44-9.7-63.13
			L576.04,219.82z"/>
		<path id="XMLID_65842_" class="st0" d="M503.12,91.84c14.96,15.32,27.92,31.87,38.83,49.34l3.62-2.09
			c-11.08-17.78-24.26-34.61-39.49-50.2L503.12,91.84z"/>
		<path id="XMLID_65841_" class="st0" d="M547.94,151.27c10.43,18.32,18.71,37.53,24.84,57.27l4.04-1.08
			c-6.23-20.08-14.64-39.63-25.26-58.28L547.94,151.27z"/>
	</g>
</g>
</svg>
