<svg xmlns="http://www.w3.org/2000/svg" width="434" height="144.57" viewBox="0 0 434 144.57">
  <g id="__utility_tooltip2" transform="translate(-10.13 -7.62)">
    <g id="Group_192" data-name="Group 192" transform="translate(10.13 7.62)">
      <path id="Path_1292" data-name="Path 1292" d="M427.194,23.695H363.5L349.6,7.96H28.8L10.46,21.451V116.8l16.6,19.318h63.7l13.9,15.743h320.8l18.339-13.5V43.013Z" transform="translate(-10.13 -7.62)" fill="#4d1a59" fill-rule="evenodd" opacity="0.72"/>
      <g id="Group_191" data-name="Group 191">
        <path id="Path_1293" data-name="Path 1293" d="M425.577,152.19H104.493l-.1-.113-13.8-15.64h-63.7L10.13,116.916V21.284l.117-.087L28.674,7.62H349.767l.1.113,13.8,15.64h63.7L444.13,42.894v95.64l-.117.087ZM104.8,151.607H425.343l18.125-13.351V43.095L427.037,23.956h-63.7l-.1-.113L349.445,8.2H28.907L10.772,21.554v95.171L27.2,135.863H90.9l.1.113Z" transform="translate(-10.13 -7.62)" fill="aqua"/>
      </g>
      <path id="Path_1294" data-name="Path 1294" d="M367.87,19.36h73.69l14.08,18.91v9.99L438.59,26.05H373.15Z" transform="translate(-21.98 -7.62)" fill="aqua" fill-rule="evenodd"/>
      <path id="Path_1295" data-name="Path 1295" d="M358.87,7.96H435.8l3.62,7.31H363.78Z" transform="translate(-21.98 -7.62)" fill="aqua" fill-rule="evenodd"/>
      <path id="Path_1296" data-name="Path 1296" d="M98.23,162H24.54L10.46,143.08v-9.99L27.51,155.3H92.95Z" transform="translate(-10.13 -29.16)" fill="aqua" fill-rule="evenodd"/>
      <path id="Path_1297" data-name="Path 1297" d="M107.23,173.4H30.3l-3.61-7.31h75.63Z" transform="translate(-10.13 -29.16)" fill="aqua" fill-rule="evenodd"/>
    </g>
  </g>
</svg>
