<svg xmlns="http://www.w3.org/2000/svg" width="403.115" height="76.56" viewBox="0 0 403.115 76.56">
  <g id="__utility_tooltip2" transform="translate(-18.085 -7.62)">
    <g id="Group_192" data-name="Group 192" transform="translate(18.085 7.62)">
      <path id="Path_1292" data-name="Path 1292" d="M398.136,16.294H338.88L325.949,7.96H27.52L10.46,15.106v50.5L25.9,75.841H85.156L98.086,84.18H396.515l17.06-7.15v-50.5Z" transform="translate(-10.46 -7.62)" fill="#4d1a59" fill-rule="evenodd" opacity="0.72"/>
      <g id="Group_191" data-name="Group 191">
        <path id="Path_1293" data-name="Path 1293" d="M396.012,84.18H97.778l-.09-.06L84.867,75.837H25.7L10.13,65.5V14.856l.108-.046L27.354,7.62H325.6l.09.06,12.821,8.282h59.168L413.245,26.3V76.948l-.109.046ZM98.068,83.871H395.8l16.835-7.07V26.406L397.368,16.271H338.2l-.09-.06L325.3,7.929H27.571L10.727,15V65.4L25.989,75.533H85.156l.09.06Z" transform="translate(-10.13 -7.62)" fill="aqua"/>
      </g>
    </g>
  </g>
</svg>
