<?xml version="1.0" encoding="UTF-8"?>
<svg id="Layer_1" data-name="Layer 1" xmlns="http://www.w3.org/2000/svg" viewBox="0 0 638.98999 1030.81995">
  <path d="M1.88,124.96158c0-8.34661,2.91-16.43168,7.99-22.18633l13.52-15.31404c4.82-5.4574,11.13-8.46552,17.78-8.46552h27.14c7.39,0,14.33-3.42426,19.56-9.63073l20.65-24.55239c4.87-5.79032,11.34-8.97679,18.23-8.97679h445.66003c6.89001,0,13.35999,3.18645,18.22998,8.97679l22.51001,26.76388c4.87,5.79032,7.54999,13.483,7.54999,21.67506V680.80872h1.88V93.22776c0-8.78655-2.88-17.04994-8.09998-23.2564l-22.51001-26.76388c-5.21997-6.20647-12.16998-9.63073-19.56-9.63073H126.76c-7.39,0-14.34,3.42426-19.56,9.63073l-20.65,24.55239c-4.87,5.79032-11.34,8.97679-18.23,8.97679h-27.14001c-7.14,0-13.92,3.22214-19.08,9.08379l-13.52,15.32592C3.13,107.32903,0,116.00858,0,124.96158V680.78499H1.88V124.96158Z" style="fill: #801cff;"/>
  <path d="M15.15,137.37451c0-7.95426,2.78-15.65885,7.62-21.15193l12.67-14.36285c4.59-5.19583,10.61-8.06127,16.95-8.06127h25.44c6.82,0,13.22-3.15078,18.04-8.88167l19.36-23.01861c4.64-5.51686,10.81-8.56064,17.38-8.56064h429.17003c6.56,0,12.73999,3.04378,17.38,8.56064l21.09998,25.08744c4.64001,5.51686,7.20001,12.85285,7.20001,20.66444V680.79682h.94V107.63816c0-8.10884-2.65002-15.71829-7.46997-21.44917l-21.09998-25.08744c-4.82001-5.73088-11.22998-8.88167-18.03998-8.88167H132.61c-6.82,0-13.22,3.15078-18.04,8.88167l-19.36,23.01861c-4.64,5.51686-10.81,8.56064-17.38,8.56064h-25.44c-6.58,0-12.84,2.97244-17.6,8.3704l-12.67,14.35099c-5.03,5.69521-7.91,13.69701-7.91,21.96042V680.77309h.94V137.37451Z" style="fill: #801cff;"/>
  <path d="M145.25999,34.14744l23.42-27.84586c3.39-4.03063,8-6.30159,12.78999-6.30159h352.56999c4.79999,0,9.40002,2.27095,12.78998,6.30159l24.59998,29.24886-426.16994-1.403Z" style="fill: #801cff;"/>
  <path d="M638.98999,166.69471c0-6.74152-2.25-13.19766-6.26001-17.96544l-11.63-13.82785,.39001,545.8835h17.5V166.69471Z" style="fill: #801cff;"/>
  <path d="M1.88,939.44703c0,8.34665,2.91,16.43168,7.99,22.18629l13.52,15.31404c4.82,5.45744,11.13,8.46552,17.78,8.46552h27.14c7.39,0,14.33,3.42426,19.56,9.63069l20.65,24.55242c4.87,5.79039,11.34,8.97677,18.23,8.97677h445.66003c6.89001,0,13.35999-3.18652,18.22998-8.97677l22.51001-26.7639c4.87-5.79032,7.54999-13.48304,7.54999-21.67504v-290.37213h1.88v290.38403c0,8.78656-2.88,17.03807-8.09998,23.2564l-22.51001,26.7639c-5.21997,6.20643-12.16998,9.63069-19.56,9.63069H126.76c-7.39,0-14.34-3.42426-19.56-9.63069l-20.65-24.55242c-4.87-5.79032-11.34-8.97677-18.23-8.97677h-27.14001c-7.14,0-13.92-3.22216-19.08-9.08381l-13.52-15.32587c-5.45-6.1708-8.58-14.85032-8.58-23.80336v-258.66211H1.88v258.66211Z" style="fill: #801cff;"/>
  <path d="M15.15,927.03417c0,7.95426,2.78,15.65882,7.62,21.15189l12.67,14.36287c4.59,5.19583,10.61,8.0613,16.95,8.0613h25.44c6.82,0,13.22,3.15082,18.04,8.88163l19.36,23.01859c4.64,5.51687,10.81,8.56065,17.38,8.56065h429.17003c6.56,0,12.73999-3.04378,17.38-8.56065l21.09998-25.0874c4.64001-5.51687,7.20001-12.85285,7.20001-20.66444v-275.9737h.94v275.98553c0,8.10884-2.65002,15.71825-7.46997,21.44913l-21.09998,25.0874c-4.82001,5.73088-11.22998,8.88163-18.03998,8.88163H132.61c-6.82,0-13.22-3.15082-18.04-8.88163l-19.36-23.01859c-4.64-5.51687-10.81-8.56065-17.38-8.56065h-25.44c-6.58,0-12.84-2.97244-17.6-8.37038l-12.67-14.3628c-5.03-5.69518-7.91-13.69705-7.91-21.96039v-246.24926h.94v246.24926Z" style="fill: #801cff;"/>
  <path d="M601.06,86.02255l-21.09998-25.08744c-4.70001-5.58819-11.07001-8.72709-17.71002-8.72709H133.08c-6.64,0-13.01,3.1389-17.71,8.72709l-19.36,23.01861c-4.7,5.58819-11.07,8.72709-17.71,8.72709h-25.44c-6.43,0-12.62,2.94866-17.28,8.21584l-12.67,14.36285c-4.96,5.62388-7.77,13.41167-7.77,21.55617V926.47531c0,8.14447,2.81,15.93233,7.77,21.55617l12.67,14.36287c4.66,5.27906,10.84,8.2158,17.28,8.2158h25.44c6.64,0,13.01,3.13892,17.71,8.72713l19.36,23.01859c4.7,5.58821,11.07,8.72713,17.71,8.72713h429.17c6.64001,0,13.01001-3.13892,17.71002-8.72713l21.09998-25.0874c4.70001-5.58821,7.34003-13.16199,7.34003-21.05682V107.07934c-.01001-7.9067-2.65002-15.48048-7.34003-21.05679Z" style="fill: #8200ff; isolation: isolate; opacity: .15;"/>
  <path d="M638.98999,897.70203c0,6.74148-2.25,13.19762-6.26001,17.96544l-11.63,13.82782,.39001-248.71038h17.5v216.91712Z" style="fill: #801cff;"/>
</svg>